<svg xmlns="http://www.w3.org/2000/svg" enable-background="new 0 0 64 64" viewBox="0 0 64 64"><path d="M62.57,6.7H35.86c-0.1,0-0.2,0.01-0.29,0.03c-0.02,0-0.04,0.01-0.06,0.02c-0.07,0.02-0.15,0.04-0.22,0.07
		c-0.03,0.01-0.06,0.03-0.08,0.05c-0.06,0.03-0.11,0.06-0.16,0.09c-0.03,0.02-0.06,0.05-0.09,0.07c-0.04,0.04-0.09,0.07-0.13,0.11
		c-0.01,0.01-0.02,0.01-0.03,0.02l-8.05,8.85c-0.01,0.01-0.01,0.02-0.02,0.03c-0.1,0.12-0.19,0.25-0.25,0.4
		c-0.01,0.01-0.01,0.03-0.01,0.04c-0.06,0.15-0.09,0.32-0.09,0.49v38.88c0,0.79,0.64,1.43,1.43,1.43h34.75
		c0.79,0,1.43-0.64,1.43-1.43V8.13C64,7.34,63.36,6.7,62.57,6.7z M34.43,11.84v3.71h-3.37L34.43,11.84z M61.13,54.44H29.25V18.42
		h6.61c0.79,0,1.43-0.64,1.43-1.43V9.56h23.84V54.44z"/><path d="M57.69 30.57h-25c-.79 0-1.43.64-1.43 1.43 0 .79.64 1.43 1.43 1.43h25c.79 0 1.43-.64 1.43-1.43C59.12 31.21 58.48 30.57 57.69 30.57zM57.69 36.91h-25c-.79 0-1.43.64-1.43 1.43 0 .79.64 1.43 1.43 1.43h25c.79 0 1.43-.64 1.43-1.43C59.12 37.55 58.48 36.91 57.69 36.91zM57.69 43.25h-25c-.79 0-1.43.64-1.43 1.43s.64 1.43 1.43 1.43h25c.79 0 1.43-.64 1.43-1.43S58.48 43.25 57.69 43.25zM57.69 49.59h-25c-.79 0-1.43.64-1.43 1.43 0 .79.64 1.43 1.43 1.43h25c.79 0 1.43-.64 1.43-1.43C59.12 50.23 58.48 49.59 57.69 49.59zM4.66 14.16C2.09 14.16 0 16.25 0 18.82v31.05c0 .11.02.22.04.32.01.03.02.06.03.09.02.08.05.15.09.22.01.02.01.03.02.05l3.23 5.99c.25.46.73.75 1.26.75.53 0 1.01-.29 1.26-.75l3.23-5.99c.01-.02.01-.03.02-.05.03-.07.06-.14.09-.22.01-.03.02-.06.03-.09.02-.1.04-.21.04-.32V18.82C9.33 16.25 7.24 14.16 4.66 14.16zM3.23 48.44H2.87V22.22h.37V48.44zM4.66 52.85l-.83-1.54h1.66L4.66 52.85zM6.46 48.44H6.1V22.22h.36V48.44zM6.46 19.36h-3.6v-.53c0-.99.81-1.8 1.8-1.8s1.8.81 1.8 1.8V19.36zM21.77 15.65h-8.49c-.79 0-1.43.64-1.43 1.43v38.79c0 .79.64 1.43 1.43 1.43h8.49c.79 0 1.43-.64 1.43-1.43V17.08C23.21 16.29 22.56 15.65 21.77 15.65zM20.34 20.34h-2.62c-.79 0-1.43.64-1.43 1.43s.64 1.43 1.43 1.43h2.62v2.08h-1.7c-.79 0-1.43.64-1.43 1.43s.64 1.43 1.43 1.43h1.7v1.97h-2.65c-.79 0-1.43.64-1.43 1.43 0 .79.64 1.43 1.43 1.43h2.65v2.06h-1.63c-.79 0-1.43.64-1.43 1.43s.64 1.43 1.43 1.43h1.63v2h-2.57c-.79 0-1.43.64-1.43 1.43 0 .79.64 1.43 1.43 1.43h2.57v2.08h-1.66c-.79 0-1.43.64-1.43 1.43s.64 1.43 1.43 1.43h1.66v1.97h-2.43c-.79 0-1.43.64-1.43 1.43s.64 1.43 1.43 1.43h2.43v1.89h-5.62V18.52h5.62V20.34zM44.08 28.12h13.61c.79 0 1.43-.64 1.43-1.43V12.51c0-.79-.64-1.43-1.43-1.43H44.08c-.79 0-1.43.64-1.43 1.43v14.17C42.64 27.47 43.28 28.12 44.08 28.12zM45.51 13.94h10.75v11.31H45.51V13.94z"/><path d="M53.67,16c-0.02-0.05-0.04-0.08-0.07-0.1c-0.03-0.02-0.06-0.03-0.09-0.03h-5.24c-0.04,0-0.07,0.01-0.1,0.03
		c-0.03,0.02-0.05,0.06-0.07,0.1c-0.02,0.05-0.03,0.11-0.04,0.19c-0.01,0.08-0.01,0.18-0.01,0.29c0,0.11,0,0.21,0.01,0.28
		c0.01,0.08,0.02,0.14,0.04,0.19c0.02,0.05,0.04,0.08,0.07,0.11c0.03,0.02,0.06,0.03,0.1,0.03h1.86v5.99c0,0.04,0.01,0.07,0.04,0.1
		c0.02,0.03,0.07,0.06,0.12,0.07c0.06,0.02,0.13,0.03,0.23,0.05c0.1,0.01,0.22,0.02,0.36,0.02c0.15,0,0.27-0.01,0.36-0.02
		c0.1-0.01,0.18-0.03,0.23-0.05c0.06-0.02,0.1-0.04,0.12-0.07c0.02-0.03,0.04-0.07,0.04-0.1V17.1h1.86c0.03,0,0.07-0.01,0.09-0.03
		c0.03-0.02,0.05-0.06,0.07-0.11c0.02-0.05,0.03-0.11,0.04-0.19c0.01-0.08,0.01-0.17,0.01-0.28c0-0.11,0-0.21-0.01-0.29
		C53.7,16.11,53.69,16.05,53.67,16z"/></svg>